<svg width="50" height="20" viewBox="0 0 50 20" fill="none" xmlns="http://www.w3.org/2000/svg">
<path d="M9.06667 19H3.17043C1.69971 19 0.732018 17.466 1.36541 16.1387L7.26165 3.78257C7.98613 2.26436 10.1472 2.26436 10.8717 3.78258L13.6 9.5L15.8667 14.25L17 16.625" stroke="#CE3126" stroke-width="2"/>
<path d="M16.0195 16.8999L17.8321 16.0547L18.4921 17.47C18.7255 17.9705 18.509 18.5655 18.0084 18.7989C17.5079 19.0323 16.9129 18.8157 16.6795 18.3152L16.0195 16.8999Z" fill="#CE3126"/>
<path d="M9 20V18H9.5C10.0523 18 10.5 18.4477 10.5 19C10.5 19.5523 10.0523 20 9.5 20H9Z" fill="#CE3126"/>
<rect x="22.0898" y="8.74072" width="11.3895" height="1.5" rx="0.75" transform="rotate(59.1779 22.0898 8.74072)" fill="#DE6025"/>
<rect x="43.5801" y="8.71997" width="11.3895" height="1.5" rx="0.75" transform="rotate(59.1779 43.5801 8.71997)" fill="#FFC025"/>
<rect x="27.4629" y="9.46655" width="11.3111" height="1.5" rx="0.75" transform="rotate(120 27.4629 9.46655)" fill="#DE6025"/>
<rect x="48.9551" y="9.47998" width="11.3111" height="1.5" rx="0.75" transform="rotate(120 48.9551 9.47998)" fill="#FFC025"/>
<mask id="path-8-inside-1_528_22" fill="white">
<path d="M39 14C39.5523 14 40.0101 13.5479 39.9003 13.0066C39.7065 12.0506 39.2355 11.1645 38.5355 10.4645C37.5979 9.52678 36.3261 9 35 9C33.6739 9 32.4021 9.52678 31.4645 10.4645C30.7645 11.1645 30.2935 12.0506 30.0997 13.0066C29.9899 13.5479 30.4477 14 31 14L35 14H39Z"/>
</mask>
<path d="M39 14C39.5523 14 40.0101 13.5479 39.9003 13.0066C39.7065 12.0506 39.2355 11.1645 38.5355 10.4645C37.5979 9.52678 36.3261 9 35 9C33.6739 9 32.4021 9.52678 31.4645 10.4645C30.7645 11.1645 30.2935 12.0506 30.0997 13.0066C29.9899 13.5479 30.4477 14 31 14L35 14H39Z" stroke="#EE9025" stroke-width="3" mask="url(#path-8-inside-1_528_22)"/>
<path d="M39.0038 15.3208C39.415 15.4564 39.6437 15.9037 39.4455 16.2886C39.2657 16.6378 39.045 16.9654 38.7875 17.2642C38.3588 17.7616 37.8364 18.1697 37.25 18.4652C36.6636 18.7606 36.0248 18.9377 35.37 18.9863C34.7152 19.0349 34.0572 18.954 33.4336 18.7483C32.8101 18.5426 32.2331 18.2161 31.7358 17.7875C31.2384 17.3588 30.8303 16.8364 30.5348 16.25C30.2394 15.6636 30.0623 15.0248 30.0137 14.37C29.9845 13.9765 30.0021 13.5819 30.0653 13.1943C30.1351 12.767 30.585 12.5436 30.9962 12.6792C31.4074 12.8149 31.6209 13.2596 31.5819 13.6908C31.565 13.8776 31.5634 14.066 31.5773 14.254C31.6107 14.7034 31.7322 15.1419 31.9351 15.5444C32.1379 15.9469 32.418 16.3055 32.7594 16.5998C33.1008 16.894 33.4968 17.1181 33.9248 17.2593C34.3528 17.4005 34.8045 17.456 35.254 17.4227C35.7034 17.3893 36.1419 17.2678 36.5444 17.0649C36.9469 16.8621 37.3055 16.582 37.5998 16.2406C37.7228 16.0978 37.8336 15.9455 37.9312 15.7853C38.1564 15.4155 38.5926 15.1851 39.0038 15.3208Z" fill="#EE9025"/>
</svg>
